<svg width="84" height="84" viewBox="0 0 84 84" fill="none" xmlns="http://www.w3.org/2000/svg">
<g id="Frame 1321317467">
<rect width="84" height="84" fill="#2F4F4F"/>
<path id="Vector" d="M74.9009 62.2401L73.7886 64.1379L63.1056 57.8773C60.8875 56.5773 58.191 56.3791 55.7996 57.3392L50.8226 59.3388C49.7346 59.7759 49.2037 61.0129 49.6361 62.1016C50.0693 63.1903 51.3024 63.7186 52.3904 63.2815L56.3154 62.5124L57.3359 63.1102L50.7859 67.5071C50.1867 67.8365 49.4695 67.8667 48.8467 67.5885L36.3117 61.9874C35.603 61.572 34.6908 61.8122 34.2741 62.5229C33.8574 63.2343 34.0936 64.1471 34.8024 64.5625L46.7841 71.5843C47.5335 72.0234 48.4431 72.0936 49.2529 71.7753L64.2428 68.6083L69.0781 72.1756L67.9684 74.0695L75.9266 78.7335L75.9857 78.7682L76.0434 78.6698L82.9183 66.9381L74.9009 62.2394V62.2401Z" fill="url(#paint0_linear_188_3597)"/>
<path id="Vector_2" d="M35.0613 59.2494C35.9158 59.4141 36.7978 59.1785 37.454 58.6095C37.454 58.6095 48.3024 49.1071 48.3838 48.8623H43.6713L34.6951 55.0579C34.1341 55.4451 33.4227 55.5469 32.7737 55.3323L25.53 52.2079L26.4238 51.4328L30.423 51.4709C31.5727 51.7019 32.6884 50.9571 32.9148 49.8073C32.9784 49.4831 32.9653 49.1622 32.8865 48.8623C32.8091 48.5651 32.668 48.2894 32.4764 48.0532C32.1752 47.6824 31.748 47.4094 31.2426 47.3083L25.9835 46.2531C24.4859 45.9525 22.9576 46.072 21.5565 46.5701C21.2723 46.6711 20.9934 46.7879 20.7204 46.9198C20.0701 47.2342 19.4571 47.6352 18.8993 48.1182L10.4567 55.434L9.54128 56.2274L8.31279 54.8099L8.23798 54.7233L8.18613 54.7679L1.21484 60.8086L10.1942 71.1714L17.2174 65.086L15.6424 63.2689L19.7439 58.8773L35.06 59.2494H35.0613Z" fill="url(#paint1_linear_188_3597)"/>
<g id="Group">
<path id="Vector_3" d="M12.5508 42.4557H18.2805C18.5607 43.8292 19.2084 45.0709 20.1147 46.0736C20.3653 45.9424 20.6219 45.8229 20.8838 45.716C21.9725 45.2704 23.1465 45.0348 24.3422 45.0348C24.9453 45.0348 25.551 45.0951 26.1429 45.2139L31.4021 46.2692C32.3116 46.4516 33.0394 47.0396 33.4351 47.8074C33.4351 47.8074 49.1627 47.8054 49.2427 47.8028C52.4137 47.6945 55.0413 45.4456 55.7251 42.4557H62.2823C63.2345 42.4557 64.0063 41.684 64.0063 40.7318C64.0063 39.7796 63.2345 39.0078 62.2823 39.0078H12.5501C11.5979 39.0078 10.8262 39.7796 10.8262 40.7318C10.8262 41.684 11.5979 42.4557 12.5501 42.4557H12.5508Z" fill="#FF6347"/>
<path id="Vector_4" d="M33.7159 15.2266C33.7375 15.3159 33.7638 15.4038 33.7887 15.4924L33.8268 15.625L33.8695 15.7549C33.9784 16.1047 34.1188 16.4354 34.2645 16.7583C34.4115 17.0805 34.5769 17.385 34.7429 17.6843C34.9116 17.9783 35.0868 18.2651 35.2607 18.5407C35.4359 18.8163 35.6131 19.0847 35.7844 19.3479C35.9596 19.6104 36.1269 19.8683 36.291 20.1249C36.4544 20.3795 36.6132 20.6341 36.7615 20.8881C36.839 21.0147 36.9072 21.142 36.9807 21.2687C37.0476 21.3967 37.1192 21.5233 37.1835 21.6513C37.446 22.1625 37.6698 22.6809 37.8502 23.2158C38.2066 24.2841 38.3779 25.4227 38.4028 26.6066C38.4172 27.1979 38.387 27.7996 38.3398 28.4067C38.2932 29.0137 38.2144 29.6266 38.1206 30.2422L38.0484 30.7055C38.0248 30.8604 37.9913 31.0133 37.9664 31.1688C37.9172 31.4799 37.8502 31.7883 37.7931 32.1007C37.778 32.1788 37.7649 32.2575 37.7485 32.335C37.7315 32.4124 37.715 32.4905 37.7 32.5686L37.6061 33.0391C37.5431 33.3534 37.4729 33.6665 37.4171 33.9874C37.6002 33.7203 37.7761 33.4486 37.946 33.1723C38.1075 32.8928 38.2781 32.6158 38.4271 32.3277C38.5806 32.0423 38.7289 31.7529 38.8668 31.4576C38.937 31.3106 39.0072 31.1629 39.0715 31.0133L39.2638 30.5618C39.3307 30.4122 39.3839 30.2573 39.4423 30.1037C39.4987 29.9495 39.5604 29.7966 39.6116 29.6398C39.7173 29.3274 39.8203 29.0124 39.9056 28.6902C40.0808 28.0484 40.2239 27.3901 40.3039 26.7136C40.3873 26.0383 40.4155 25.3466 40.3781 24.6503C40.3394 23.9547 40.235 23.2532 40.0565 22.57C39.8787 21.8862 39.628 21.2234 39.332 20.5954C39.0367 19.9654 38.6896 19.3781 38.3352 18.8183C37.6232 17.7027 36.8626 16.7183 36.3258 15.7326C36.0593 15.2385 35.8395 14.7463 35.6997 14.2337C35.5521 13.7232 35.4832 13.1903 35.4773 12.6358C35.4641 11.5261 35.722 10.3429 36.0928 9.16885C36.4544 7.98629 36.9486 6.81687 37.4178 5.60938C36.9604 6.06809 36.5266 6.55043 36.1276 7.06361C35.9202 7.31496 35.7365 7.58336 35.5422 7.84783C35.3591 8.11951 35.1767 8.39185 35.0067 8.67666C34.6688 9.24432 34.3577 9.83887 34.109 10.4754C33.859 11.1107 33.6673 11.7879 33.5715 12.5006L33.5367 12.7684L33.517 13.0394C33.5006 13.2205 33.5046 13.4036 33.502 13.5867C33.5111 13.9529 33.5374 14.3237 33.6037 14.6872C33.6312 14.871 33.6759 15.0488 33.7152 15.2293L33.7159 15.2266Z" fill="#FFE4C4"/>
<path id="Vector_5" d="M28.1762 15.2266C28.1978 15.3159 28.2241 15.4038 28.249 15.4924L28.2871 15.625L28.3297 15.7549C28.4387 16.1047 28.5791 16.4354 28.7248 16.7583C28.8718 17.0805 29.0372 17.385 29.2032 17.6843C29.3718 17.9783 29.5471 18.2651 29.721 18.5407C29.8962 18.8163 30.0734 19.0847 30.2447 19.3479C30.4199 19.6104 30.5872 19.8683 30.7513 20.1249C30.9147 20.3795 31.0735 20.6341 31.2218 20.8881C31.2992 21.0147 31.3675 21.142 31.441 21.2687C31.5079 21.3967 31.5795 21.5233 31.6438 21.6513C31.9063 22.1625 32.13 22.6809 32.3105 23.2158C32.6669 24.2841 32.8381 25.4227 32.8631 26.6066C32.8775 27.1979 32.8473 27.7996 32.8001 28.4067C32.7535 29.0137 32.6747 29.6266 32.5809 30.2422L32.5087 30.7055C32.4851 30.8604 32.4516 31.0133 32.4267 31.1688C32.3774 31.4799 32.3105 31.7883 32.2534 32.1007C32.2383 32.1788 32.2252 32.2575 32.2088 32.335C32.1917 32.4124 32.1753 32.4905 32.1602 32.5686L32.0664 33.0391C32.0034 33.3534 31.9332 33.6665 31.8774 33.9874C32.0605 33.7203 32.2364 33.4486 32.4063 33.1723C32.5678 32.8928 32.7384 32.6158 32.8874 32.3277C33.0409 32.0423 33.1892 31.7529 33.327 31.4576C33.3973 31.3106 33.4675 31.1629 33.5318 31.0133L33.7241 30.5618C33.791 30.4122 33.8442 30.2573 33.9026 30.1037C33.959 29.9495 34.0207 29.7966 34.0719 29.6398C34.1775 29.3274 34.2806 29.0124 34.3659 28.6902C34.5411 28.0484 34.6841 27.3901 34.7642 26.7136C34.8476 26.0383 34.8758 25.3466 34.8384 24.6503C34.7996 23.9547 34.6953 23.2532 34.5168 22.57C34.339 21.8862 34.0883 21.2234 33.7923 20.5954C33.497 19.9654 33.1498 19.3781 32.7955 18.8183C32.0834 17.7027 31.3229 16.7183 30.7861 15.7326C30.5196 15.2385 30.2998 14.7463 30.16 14.2337C30.0123 13.7232 29.9434 13.1903 29.9375 12.6358C29.9244 11.5261 30.1823 10.3429 30.5531 9.16885C30.9147 7.98629 31.4088 6.81687 31.878 5.60938C31.4206 6.06809 30.9869 6.55043 30.5879 7.06361C30.3805 7.31496 30.1967 7.58336 30.0025 7.84783C29.8194 8.11951 29.637 8.39185 29.467 8.67666C29.129 9.24432 28.818 9.83887 28.5693 10.4754C28.3192 11.1107 28.1276 11.7879 28.0318 12.5006L27.9977 12.7684L27.978 13.0394C27.9616 13.2205 27.9655 13.4036 27.9629 13.5867C27.9721 13.9529 27.9983 14.3237 28.0646 14.6872C28.0922 14.871 28.1368 15.0488 28.1762 15.2293V15.2266Z" fill="#FFE4C4"/>
</g>
</g>
<defs>
<linearGradient id="paint0_linear_188_3597" x1="58.4933" y1="56.7383" x2="58.4933" y2="78.7682" gradientUnits="userSpaceOnUse">
<stop offset="0.12" stop-color="#FDD964"/>
<stop offset="0.985" stop-color="#F9AA1F"/>
</linearGradient>
<linearGradient id="paint1_linear_188_3597" x1="24.7993" y1="46.0898" x2="24.7993" y2="71.1714" gradientUnits="userSpaceOnUse">
<stop offset="0.165" stop-color="#FEDA66"/>
<stop offset="0.52" stop-color="#FAAA1F"/>
</linearGradient>
</defs>
</svg>
